<mxfile host="65bd71144e" modified="2021-02-23T11:30:00.288Z" agent="5.0 (Macintosh; Intel Mac OS X 10_15_7) AppleWebKit/537.36 (KHTML, like Gecko) Code/1.53.0 Chrome/87.0.4280.141 Electron/11.2.1 Safari/537.36" etag="rejbNmbubjC_1jOG_BgK" version="14.2.4" type="embed">
    <diagram id="MgnJuYKY0jzXATQrqNLE" name="ページ1">
        <mxGraphModel dx="780" dy="570" grid="1" gridSize="13" guides="1" tooltips="1" connect="1" arrows="1" fold="1" page="1" pageScale="1" pageWidth="827" pageHeight="1169" math="0" shadow="0">
            <root>
                <mxCell id="0"/>
                <mxCell id="1" parent="0"/>
                <mxCell id="2" value="&lt;font style=&quot;font-size: 16px&quot;&gt;usersテーブル&lt;/font&gt;&lt;br style=&quot;font-size: 13px&quot;&gt;&lt;br style=&quot;font-size: 13px&quot;&gt;nickname (string型, NOT NULL)&lt;br style=&quot;font-size: 13px&quot;&gt;email (string型, NOT NULL,&amp;nbsp;&lt;font style=&quot;font-size: 13px&quot;&gt;&lt;span&gt;unique: true)&lt;/span&gt;&lt;br&gt;&lt;span style=&quot;font-size: 14px&quot;&gt;encrypted_password&lt;/span&gt;&amp;nbsp;(string型, NOT NULL)&lt;br&gt;first_name (string型, NOT NULL)&lt;br&gt;last_name (string型, NOT NULL)&lt;br&gt;first_name_kana (string型, NOT NULL)&lt;br&gt;last_name_kana (string型, NOT NULL)&lt;br&gt;birthday (date型, NOT NULL)&lt;/font&gt;" style="rounded=0;whiteSpace=wrap;html=1;align=left;shadow=1;fontSize=13;labelBackgroundColor=none;fontColor=#F0F0F0;" parent="1" vertex="1">
                    <mxGeometry x="13" y="112.5" width="287" height="195" as="geometry"/>
                </mxCell>
                <mxCell id="3" value="furima-34428のER図" style="rounded=0;whiteSpace=wrap;html=1;fontSize=23;align=left;strokeColor=none;" parent="1" vertex="1">
                    <mxGeometry x="20" y="52" width="240" height="40" as="geometry"/>
                </mxCell>
                <mxCell id="4" value="&lt;font style=&quot;font-size: 16px&quot;&gt;itemsテーブル&lt;/font&gt;&lt;br style=&quot;font-size: 13px&quot;&gt;&lt;br style=&quot;font-size: 13px&quot;&gt;image (&lt;span style=&quot;font-family: &amp;#34;helvetica neue&amp;#34; ; font-size: 13px&quot;&gt;ActiveStorage&lt;/span&gt;&lt;span style=&quot;font-size: 13px&quot;&gt;で実装)&lt;br style=&quot;font-size: 13px&quot;&gt;&lt;/span&gt;item_name (string型, NOT NULL)&lt;br style=&quot;font-size: 13px&quot;&gt;info (text型, NOT NULL)&lt;br style=&quot;font-size: 13px&quot;&gt;price (integer型, NOT NULL)&lt;br style=&quot;font-size: 13px&quot;&gt;category_id (integer型, NOT NULL)&lt;br style=&quot;font-size: 13px&quot;&gt;sales_status_id (integer型, NOT NULL)&lt;br style=&quot;font-size: 13px&quot;&gt;shipping_free_id (integer型, NOT NULL)&lt;br style=&quot;font-size: 13px&quot;&gt;&lt;font style=&quot;font-size: 13px&quot;&gt;prefecture_id&lt;/font&gt;&amp;nbsp; (integer型, NOT NULL)&lt;br style=&quot;font-size: 13px&quot;&gt;schedule_id (integer型, NOT NULL)&lt;br style=&quot;font-size: 13px&quot;&gt;user (&lt;span style=&quot;font-family: &amp;#34;helvetica neue&amp;#34; ; font-size: 13px&quot;&gt;references型&lt;/span&gt;&lt;span style=&quot;font-size: 13px&quot;&gt;)&lt;/span&gt;" style="rounded=0;whiteSpace=wrap;html=1;align=left;fontSize=13;fontColor=#F0F0F0;labelBackgroundColor=none;" parent="1" vertex="1">
                    <mxGeometry x="414" y="99.5" width="312" height="221" as="geometry"/>
                </mxCell>
                <mxCell id="5" value="&lt;font style=&quot;font-size: 16px&quot;&gt;&lt;font style=&quot;font-size: 16px&quot;&gt;buysテーブル&lt;/font&gt;&lt;br&gt;&lt;/font&gt;&lt;br style=&quot;font-size: 13px&quot;&gt;item (references型)&lt;br style=&quot;font-size: 13px&quot;&gt;user&amp;nbsp; (references型)" style="rounded=0;whiteSpace=wrap;html=1;align=left;fontSize=13;" parent="1" vertex="1">
                    <mxGeometry x="468" y="364" width="230" height="117" as="geometry"/>
                </mxCell>
                <mxCell id="6" value="&lt;font style=&quot;font-size: 16px&quot;&gt;&lt;font style=&quot;font-size: 16px&quot;&gt;addressテーブル&lt;/font&gt;&lt;br&gt;&lt;/font&gt;&lt;br style=&quot;font-size: 13px&quot;&gt;buys (references型)&lt;br style=&quot;font-size: 13px&quot;&gt;postal_code (string型, NOT NULL)&lt;br style=&quot;font-size: 13px&quot;&gt;prefecture_id (strings型, NOT NULL)&lt;br style=&quot;font-size: 13px&quot;&gt;city (string型, NOT NULL)&lt;br style=&quot;font-size: 13px&quot;&gt;addresses (string型)&lt;br style=&quot;font-size: 13px&quot;&gt;building (string型, NOT NULL)&lt;br style=&quot;font-size: 13px&quot;&gt;phone (integer型, NOT NULL)" style="rounded=0;whiteSpace=wrap;html=1;align=left;fontSize=13;" parent="1" vertex="1">
                    <mxGeometry x="20" y="338" width="240" height="169" as="geometry"/>
                </mxCell>
                <mxCell id="gs9yF-zhwbiOR2rNWqny-23" value="" style="edgeStyle=entityRelationEdgeStyle;fontSize=12;html=1;endArrow=ERoneToMany;startArrow=ERzeroToOne;exitX=1;exitY=0.5;exitDx=0;exitDy=0;entryX=0;entryY=0.5;entryDx=0;entryDy=0;" parent="1" source="2" target="4" edge="1">
                    <mxGeometry width="100" height="100" relative="1" as="geometry">
                        <mxPoint x="338" y="217" as="sourcePoint"/>
                        <mxPoint x="438" y="117" as="targetPoint"/>
                    </mxGeometry>
                </mxCell>
                <mxCell id="E2RSM7mypjSdfIPtdFN1-8" value="" style="edgeStyle=entityRelationEdgeStyle;fontSize=12;html=1;endArrow=ERmandOne;startArrow=ERmandOne;entryX=1;entryY=0.5;entryDx=0;entryDy=0;exitX=0;exitY=0.5;exitDx=0;exitDy=0;" parent="1" source="5" target="6" edge="1">
                    <mxGeometry width="100" height="100" relative="1" as="geometry">
                        <mxPoint x="585" y="377" as="sourcePoint"/>
                        <mxPoint x="585" y="276.5" as="targetPoint"/>
                    </mxGeometry>
                </mxCell>
                <mxCell id="E2RSM7mypjSdfIPtdFN1-13" value="" style="edgeStyle=entityRelationEdgeStyle;fontSize=12;html=1;endArrow=ERmandOne;startArrow=ERmandOne;entryX=0.5;entryY=1;entryDx=0;entryDy=0;exitX=0.435;exitY=-0.022;exitDx=0;exitDy=0;exitPerimeter=0;" parent="1" source="5" target="4" edge="1">
                    <mxGeometry width="100" height="100" relative="1" as="geometry">
                        <mxPoint x="481" y="435.5" as="sourcePoint"/>
                        <mxPoint x="273" y="435.5" as="targetPoint"/>
                    </mxGeometry>
                </mxCell>
                <mxCell id="E2RSM7mypjSdfIPtdFN1-14" value="" style="edgeStyle=entityRelationEdgeStyle;fontSize=12;html=1;endArrow=ERoneToMany;startArrow=ERzeroToOne;exitX=1;exitY=1;exitDx=0;exitDy=0;entryX=0;entryY=0;entryDx=0;entryDy=0;" parent="1" source="2" target="5" edge="1">
                    <mxGeometry width="100" height="100" relative="1" as="geometry">
                        <mxPoint x="263" y="173" as="sourcePoint"/>
                        <mxPoint x="429" y="173" as="targetPoint"/>
                    </mxGeometry>
                </mxCell>
            </root>
        </mxGraphModel>
    </diagram>
</mxfile>